<svg width="119" height="112" viewBox="0 0 119 112" fill="none" xmlns="http://www.w3.org/2000/svg">
<path d="M43.0876 56.5273C41.9637 56.5273 41.0515 57.4379 41.0515 58.5618C41.0515 59.6888 41.9637 60.6002 43.0876 60.6002C44.213 60.6002 45.1252 59.6888 45.1252 58.5618C45.1244 57.4371 44.2122 56.5273 43.0876 56.5273Z" fill="#1C1B1F"/>
<path d="M67.3114 56.5273C66.1875 56.5273 65.2762 57.4379 65.2762 58.5618C65.2762 59.6888 66.1875 60.6002 67.3114 60.6002C68.4377 60.6002 69.349 59.6888 69.349 58.5618C69.349 57.4371 68.4377 56.5273 67.3114 56.5273Z" fill="#1C1B1F"/>
<path d="M53.0616 71.5309H56.5255C57.1655 71.5309 57.6844 71.0088 57.6844 70.372C57.6844 69.7289 57.1639 69.2099 56.5255 69.2099H53.0616C52.4216 69.2099 51.9027 69.7289 51.9027 70.372C51.9027 71.0088 52.4216 71.5309 53.0616 71.5309Z" fill="#1C1B1F"/>
<path d="M59.3742 78.5416L54.7299 80.1399L50.3506 78.5647L50.2121 78.5424C49.6677 78.5424 49.2251 78.9849 49.2251 79.5286C49.2251 80.0475 49.6263 80.4734 50.1325 80.5124L54.7235 82.1647L59.4546 80.5124C59.9624 80.4742 60.3636 80.0475 60.3636 79.5286C60.3628 78.9841 59.9187 78.5416 59.3742 78.5416Z" fill="#1C1B1F"/>
<path d="M111.543 76.9561H108.687V13.9028C108.687 6.2243 102.46 0 94.7827 0H14.1939C6.51623 0 0.291138 6.2235 0.291138 13.9028V94.4908C0.291138 96.4106 0.679559 98.2413 1.38318 99.9032L32.4927 86.95V77.4153C32.4927 77.4153 21.3694 54.6942 24.5468 36.4225C24.5468 36.4225 28.361 9.25208 58.8672 11.6351C58.8672 11.6351 78.4109 14.0182 84.2897 24.5048C84.2897 24.5048 91.5997 43.5709 77.2989 78.3705V86.95L83.6657 89.6729V92.637L74.346 88.4877V78.0011C74.346 77.9693 74.338 77.9407 74.3348 77.9088C78.9219 68.2174 80.8815 57.6902 81.0184 56.9197C84.9862 39.7352 82.0515 26.5806 81.847 26.3578C74.9453 18.7716 66.17 14.7616 56.4714 14.7616C47.6611 14.7616 41.1518 17.9916 40.8979 18.1189C20.8695 27.9234 28.322 56.0879 28.8537 57.9855C29.0765 59.1627 30.8786 68.2206 35.0684 77.0006C35.0509 77.093 35.0366 77.1917 35.0366 77.2904V88.3055L2.07406 102.979C1.19692 103.37 0.802135 104.399 1.19215 105.277C1.48187 105.925 2.11704 106.309 2.78404 106.309C3.01964 106.309 3.26002 106.261 3.49084 106.159L35.0382 92.1165V93.3741C35.0382 93.7585 35.1671 94.135 35.4027 94.4374C35.7386 94.8704 43.7371 105.032 54.9687 105.156C55.0403 105.156 55.1088 105.156 55.1788 105.156C61.8902 105.156 68.2084 101.562 73.9584 94.4693C74.2099 94.1596 74.3468 93.772 74.3468 93.3741V92.2971L83.6649 96.4456V104.834C83.6649 108.785 86.8805 112 90.8308 112H111.543C115.496 112 118.709 108.785 118.709 104.834V84.1228C118.709 80.1701 115.496 76.9561 111.543 76.9561ZM70.8669 92.75C65.8755 98.7292 60.5299 101.689 55.026 101.677C46.698 101.594 40.1068 94.5871 38.5165 92.7437V83.1708C42.4142 89.0831 47.6595 93.823 54.5739 94.2973C54.9018 94.3164 55.2297 94.3292 55.5513 94.3292C62.0271 94.3292 67.0535 89.9236 70.8669 84.1387V92.75ZM54.8127 90.8238C38.452 89.7095 32.3208 57.5971 32.2603 57.2731C32.2476 57.2126 32.2348 57.1521 32.2157 57.0908C32.203 57.0431 31.9515 56.1707 31.649 54.7364C31.6952 54.7197 31.7414 54.7126 31.7875 54.6903C38.487 51.6816 42.3426 46.9807 43.9273 44.6781C49.401 47.9701 57.0023 51.1658 65.9153 51.1658C70.0136 51.1658 74.3937 50.4797 78.9657 48.8257C78.6473 51.1563 78.2111 53.6237 77.6125 56.2185C77.5489 56.5719 70.9847 91.9222 54.8127 90.8238ZM115.449 104.834C115.449 106.986 113.699 108.741 111.544 108.741H90.8316C88.6802 108.741 86.9259 106.986 86.9259 104.834V84.1228C86.9259 81.9673 88.6802 80.2163 90.8316 80.2163H111.544C113.699 80.2163 115.449 81.9673 115.449 84.1228V104.834Z" fill="#1C1B1F"/>
<path d="M96.0443 98.9194L90.9964 92.4627L88.517 94.088L95.421 103.326L114.13 90.5596L112.508 88.4105L96.0443 98.9194Z" fill="#1C1B1F"/>
</svg>
